<svg xmlns="http://www.w3.org/2000/svg" viewBox="0 0 64 64">
  <rect x="3" y="3" width="58" height="58" rx="20" fill="#EDF8FB"/>
  <rect x="3" y="3" width="58" height="58" rx="20" fill="none" stroke="#C5E3EB" stroke-width="2"/>
  <circle cx="32" cy="18" r="10" fill="#18314D"/>
  <path d="M11 53V45C11 33.4 20.4 24 32 24C43.6 24 53 33.4 53 45V53C53 55.2 51.2 57 49 57H15C12.8 57 11 55.2 11 53Z" fill="#18314D"/>
  <path d="M24.2 26L32 35.2L39.8 26C37.4 24.7 34.8 24 32 24C29.2 24 26.6 24.7 24.2 26Z" fill="#EDF8FB"/>
  <path d="M43 37V51M36 44H50" fill="none" stroke="#EDF8FB" stroke-width="6" stroke-linecap="round"/>
</svg>
